<svg xmlns="http://www.w3.org/2000/svg" width="960" height="162" viewBox="0 0 960 162" role="img" aria-label="Data transformation" aria-describedby="transform-desc">
  <desc id="transform-desc">Data transformation: 4 elements and 2 connections.</desc>
  <rect width="960" height="162" fill="#f8fafc"/>
  <defs>
    <marker id="transform-arrow-ingest" markerWidth="5" markerHeight="5" refX="4.6" refY="2.5" orient="auto"><path d="M 0 0 L 5 2.5 L 0 5 z" fill="#8492a6"/></marker>
    <marker id="transform-arrow-emit" markerWidth="5" markerHeight="5" refX="4.6" refY="2.5" orient="auto"><path d="M 0 0 L 5 2.5 L 0 5 z" fill="#8492a6"/></marker>
    <filter id="transform-card-shadow" x="-15%" y="-20%" width="130%" height="150%"><feDropShadow dx="0" dy="2" stdDeviation="3" flood-color="#101828" flood-opacity="0.08"/></filter>
  </defs>
  <text x="20" y="27" font-family="Inter,system-ui,sans-serif" font-size="14" font-weight="700" fill="#172033">Data transformation</text>
  <g transform="translate(0 42)">
    <g data-livery-connector="ingest" data-livery-variant="directional">
      <path data-livery-id="ingest" d="M 344.22834900000004 58 L 416 58" fill="none" stroke="#8492a6" stroke-width="1.5" stroke-linecap="round" stroke-linejoin="round" marker-end="url(#transform-arrow-ingest)"/>
      <rect x="363.7539245" y="28" width="32.7205" height="16" rx="2" fill="#f8fafc" fill-opacity="0.98"/>
      <text x="380.1141745" y="36" dominant-baseline="middle" text-anchor="middle" font-family="Inter,system-ui,sans-serif" font-size="10" font-weight="600" fill="#64748b">parse</text>
    </g>
    <g data-livery-connector="emit" data-livery-variant="directional">
      <path data-livery-id="emit" d="M 544 58 L 614.7451255 58" fill="none" stroke="#8492a6" stroke-width="1.5" stroke-linecap="round" stroke-linejoin="round" marker-end="url(#transform-arrow-emit)"/>
      <rect x="557.5132627500001" y="28" width="43.718599999999995" height="16" rx="2" fill="#f8fafc" fill-opacity="0.98"/>
      <text x="579.37256275" y="36" dominant-baseline="middle" text-anchor="middle" font-family="Inter,system-ui,sans-serif" font-size="10" font-weight="600" fill="#64748b">validate</text>
    </g>
    <g data-livery-id="input">
      <rect x="200.22834900000004" y="24" width="144" height="68" rx="6" fill="#ffffff" stroke="#cbd5e1" stroke-width="1"/>
      <g data-livery-glyph="table" transform="translate(217.22834900000004 49) scale(0.75)" fill="none" stroke="#64748b" stroke-width="1.8666666666666665" stroke-linecap="round" stroke-linejoin="round" vector-effect="non-scaling-stroke">
        <path d="M3 5h18v14H3z"/>
        <path d="M3 10h18"/>
        <path d="M9 5v14"/>
      </g>
      <text x="250.22834900000004" y="62" text-anchor="start" font-family="Inter,system-ui,sans-serif" font-size="13" font-weight="600" fill="#172033">
        <tspan x="250.22834900000004" dy="0">Raw events</tspan>
      </text>
    </g>
    <g data-livery-id="worker">
      <rect x="416" y="24" width="128" height="68" rx="6" fill="#ffffff" stroke="#cbd5e1" stroke-width="1"/>
      <g data-livery-glyph="worker" transform="translate(433 49) scale(0.75)" fill="none" stroke="#64748b" stroke-width="1.8666666666666665" stroke-linecap="round" stroke-linejoin="round" vector-effect="non-scaling-stroke">
        <path d="M12 2v4"/>
        <path d="M12 18v4"/>
        <path d="M4.93 4.93l2.83 2.83"/>
        <path d="M16.24 16.24l2.83 2.83"/>
        <path d="M2 12h4"/>
        <path d="M18 12h4"/>
        <path d="M4.93 19.07l2.83-2.83"/>
        <path d="M16.24 7.76l2.83-2.83"/>
        <path d="M12 16a4 4 0 1 0 0-8 4 4 0 0 0 0 8"/>
      </g>
      <text x="466" y="62" text-anchor="start" font-family="Inter,system-ui,sans-serif" font-size="13" font-weight="600" fill="#172033">
        <tspan x="466" dy="0">Normalize</tspan>
      </text>
    </g>
    <g data-livery-id="output">
      <rect x="614.7451255" y="24" width="146.05305099999998" height="68" rx="6" fill="#ffffff" stroke="#cbd5e1" stroke-width="1"/>
      <g data-livery-glyph="table" transform="translate(631.7451255 49) scale(0.75)" fill="none" stroke="#64748b" stroke-width="1.8666666666666665" stroke-linecap="round" stroke-linejoin="round" vector-effect="non-scaling-stroke">
        <path d="M3 5h18v14H3z"/>
        <path d="M3 10h18"/>
        <path d="M9 5v14"/>
      </g>
      <text x="664.7451255" y="53" text-anchor="start" font-family="Inter,system-ui,sans-serif" font-size="13" font-weight="600" fill="#172033">
        <tspan x="664.7451255" dy="0">Clean</tspan>
        <tspan x="664.7451255" dy="18">records</tspan>
      </text>
    </g>
  </g>
</svg>